# xmcd
#
# Track frame offsets:
# 150
# 19050
# 30815
# 46350
# 62566
# 77318
# 93770
# 109629
# 123875
# 139831
# 156605
# 169245
# 183658
# 197806
#
# Disc length: 2895 seconds
#
#
# Revision: 0
# Processed by: cddbd v1.5.1PL2 Copyright (c) Steve Scherf et al.
# Submitted via: FreeRIP 2.945 
#
DISCID=ad0b4d0e
DTITLE=Woodie and Cleda Jane Cochran - Leather and Lace
DYEAR=2005
DGENRE=Country
TTITLE0=Ghost Riders In The Sky
TTITLE1=Ti Yi Yippi Yippi Yay
TTITLE2=Faded Love
TTITLE3=Have I told You Lately That I Love You
TTITLE4=Yippi Yi Oh Ki Yay
TTITLE5=Home On The Range
TTITLE6=Rose Of San Antone
TTITLE7=Roll On Lil' Doggie
TTITLE8=Mammaw's Medley
TTITLE9=Cold Cold Heart
TTITLE10=Yellow Rose Of Texas
TTITLE11=She'll Be Comin' Round The Mountain
TTITLE12=Take Me Back To Tulsa
TTITLE13=The Lone Prairie
EXTD=Western Songs
EXTT0=
EXTT1=
EXTT2=
EXTT3=
EXTT4=
EXTT5=
EXTT6=
EXTT7=
EXTT8=
EXTT9=
EXTT10=
EXTT11=
EXTT12=
EXTT13=
PLAYORDER=
